<svg id="Logos" xmlns="http://www.w3.org/2000/svg" viewBox="0 0 1006 185"><defs><style>.cls-1{fill:#fff;}</style></defs><path class="cls-1" d="M978.32,65l0,48.72c0,4,.9,6.83,2.69,8.47s4.53,2.52,8.07,2.52a30.56,30.56,0,0,0,13.76-3.3l2.76-1.37v23.5l-1,.55a43.37,43.37,0,0,1-10,4.07,47.68,47.68,0,0,1-12.19,1.42A45.74,45.74,0,0,1,970,147.9a26.51,26.51,0,0,1-10.26-5.5,24.3,24.3,0,0,1-6.72-10,43.46,43.46,0,0,1-2.28-15l0-52.39H937.66V41h13.06V12.78h27.6V41.05H1006V65Z"/><path class="cls-1" d="M924.56,80.36l0,67.39H896.92l0-60.24c0-7.53-1.75-13.35-5.22-17.31s-8.26-5.87-14.7-5.87-11.3,2-15.21,6.11S856,80.39,856,87.87l0,59.85H828.32l.07-146.09H856l0,51.64,2.22-2.5a38.79,38.79,0,0,1,7.37-6.1,37.33,37.33,0,0,1,9.22-4.24,38.26,38.26,0,0,1,11.35-1.56c12.17,0,21.74,3.83,28.43,11.37S924.56,67.85,924.56,80.36Z"/><path class="cls-1" d="M779.92,40.72V45l-1.46-.74C754.34,32,729,40.87,716.42,56a49.34,49.34,0,0,0-2.31,60.83,48,48,0,0,0,25.19,18.42c14.2,4.42,26.86,3.33,38.7-3.31l1.38-.78.11,1.58c.9,13.74-5.84,23.39-18,25.78-8.55,1.68-16.11-.3-22.49-5.89-.84-.75-2.78-2.18-4.15-2.24l-.41,0-.38.14c-5.66,2.15-11.35,4.64-16.38,6.83l-6.22,2.7,2.81,3.78c1.23,1.64,2.2,2.93,3.32,4.15,10.34,11.21,22.71,16.67,37.83,16.67a72.47,72.47,0,0,0,11.44-1c17.66-2.85,29.52-12.63,35.23-29a66.27,66.27,0,0,0,4.05-20.22c.26-16.35.31-57.7.34-77.57l0-16.14Zm-7.28,64.21a24.69,24.69,0,0,1-17.55,7.27,24.2,24.2,0,0,1-23.86-24.41c0-13.35,10.36-23.45,24-23.49a24.87,24.87,0,0,1,17.67,7.2,23.1,23.1,0,0,1,6.89,16.37A23.94,23.94,0,0,1,772.64,104.93Z"/><polygon class="cls-1" points="687.23 2.73 687.21 28.96 657.86 28.95 657.87 2.71 687.23 2.73"/><rect class="cls-1" x="658.81" y="40.92" width="27.6" height="106.73"/><polygon class="cls-1" points="634.05 1.53 633.99 147.63 606.39 147.62 606.45 1.52 634.05 1.53"/><path class="cls-1" d="M560.47,37.91v3.73l27.29,0V65h-26.9l0,82.63H533.2l0-82.63H520.18V41.43h13.06v-5.5c0-11.91,3-20.92,8.83-26.77S556.29.33,567,.33a66.71,66.71,0,0,1,11,.81,77.46,77.46,0,0,1,8.6,2l1.37.41v24l-2.52-.85a63.32,63.32,0,0,0-6.52-1.8,33.13,33.13,0,0,0-6.72-.64c-4,0-6.87,1.06-8.78,3.24S560.47,33.21,560.47,37.91Z"/><path class="cls-1" d="M477.92,1.06l0,46.52-1.51-.89a55.26,55.26,0,0,0-83.14,47.6,56.64,56.64,0,0,0,16,39.44,53.84,53.84,0,0,0,78.36,0,56.93,56.93,0,0,0,16-37.49l.09-95.21Zm-8.82,114.8a28.1,28.1,0,0,1-41.36,0A30.92,30.92,0,0,1,419,94.31a29.45,29.45,0,0,1,58.9,0A30.91,30.91,0,0,1,469.1,115.86Z"/><path class="cls-1" d="M380.76,40.79l-.05,106.72h-27.6V135.21L351.4,137a55,55,0,0,1-7.9,6.85c-5.36,3.81-12.26,5.75-20.54,5.75-12.18,0-21.75-3.83-28.44-11.37s-10-17.61-10-30.12l0-67.39h27.6l0,60.24c0,7.53,1.76,13.35,5.22,17.31s8.25,5.86,14.7,5.87,11.31-2,15.22-6.11,5.86-9.95,5.86-17.44l0-59.85Z"/><path class="cls-1" d="M265.52,72.51a54.8,54.8,0,0,0-11.81-17.67,55.52,55.52,0,0,0-18-11.93,58.48,58.48,0,0,0-22.65-4.34A57.53,57.53,0,0,0,190.41,43a56.6,56.6,0,0,0-17.94,12,55.67,55.67,0,0,0-11.92,17.74,55,55,0,0,0,29.63,72.69,60.47,60.47,0,0,0,45.24-.08,55.35,55.35,0,0,0,30-29.65,54.48,54.48,0,0,0,4.36-21.6A55.52,55.52,0,0,0,265.52,72.51Zm-25.4,34.09a28.85,28.85,0,0,1-5.82,9.79,28,28,0,0,1-9.16,6.65,28.53,28.53,0,0,1-12.08,2.45,27.66,27.66,0,0,1-11.7-2.46,29.2,29.2,0,0,1-9.27-6.68,30.22,30.22,0,0,1-6.1-10,34.79,34.79,0,0,1-2.19-12.28,35.52,35.52,0,0,1,2-12.12,28.94,28.94,0,0,1,5.81-9.78,29.23,29.23,0,0,1,32.94-6.65,28.71,28.71,0,0,1,9.26,6.77,31.48,31.48,0,0,1,6.11,10,33.69,33.69,0,0,1,2.19,12.18A35.85,35.85,0,0,1,240.12,106.6Z"/><polygon class="cls-1" points="143.22 1.31 143.16 147.41 115.55 147.41 115.62 1.3 143.22 1.31"/><path class="cls-1" d="M101.34,128.39l-1.22,1.35a66.2,66.2,0,0,1-17.74,14.19c-6.73,3.72-15.41,5.6-25.78,5.6a55.57,55.57,0,0,1-22.08-4.38,54.53,54.53,0,0,1-17.59-12,50.23,50.23,0,0,1-6.14-7.55l-.22-.32c-.05-.9-.07-1.81-.07-2.71A52.18,52.18,0,0,1,30.17,81.87l-.9,4a35,35,0,0,0-.83,7.79,36.48,36.48,0,0,0,2.14,12.58,30.12,30.12,0,0,0,6.06,10.1A29.73,29.73,0,0,0,46,123.12a28.38,28.38,0,0,0,11.86,2.48,29.35,29.35,0,0,0,11.75-2.27,23.39,23.39,0,0,0,2.24-1.12l.63-.37a57.65,57.65,0,0,0,11-8.57L84.76,112Z"/><path class="cls-1" d="M101.43,173.66a11.06,11.06,0,0,1-10.82,11H16.39a11,11,0,0,1-1.05-21.95h0l1,0c2.27-.07,13.23-.06,65.87,0h8.33A11.06,11.06,0,0,1,101.43,173.66Z"/><path class="cls-1" d="M101.19,55.22,84.88,72.85a38.09,38.09,0,0,0-8-7.2,36,36,0,0,0-5.82-3.2,25.38,25.38,0,0,0-9.31-2.73,45.86,45.86,0,0,0-13.88.16A53.32,53.32,0,0,0,3,111,57.55,57.55,0,0,1,57.5,35.1,58,58,0,0,1,67.65,36l.12,0A57.5,57.5,0,0,1,101.19,55.22Z"/></svg>