<?xml version="1.0" encoding="UTF-8"?>
<!-- Generator: Adobe Illustrator 16.0.0, SVG Export Plug-In . SVG Version: 6.00 Build 0)  -->
<!DOCTYPE svg PUBLIC "-//W3C//DTD SVG 1.1//EN" "http://www.w3.org/Graphics/SVG/1.1/DTD/svg11.dtd">
<svg version="1.1" id="Ebene_1" xmlns="http://www.w3.org/2000/svg" xmlns:xlink="http://www.w3.org/1999/xlink" x="0px" y="0px" width="210.994px" height="33.935px" viewBox="0 0 210.994 33.935" enable-background="new 0 0 210.994 33.935" xml:space="preserve">
<polygon fill="#0094FF" points="3.849,30.078 3.851,23.33 -0.005,23.329 -0.007,33.933 20.429,33.937 20.431,30.081 "/>
<polygon fill="#343434" points="33.933,0.007 33.925,33.94 24.286,33.938 24.287,30.082 30.07,30.083 30.076,3.862 3.855,3.857   3.852,19.474 -0.004,19.473 0,0 "/>
<g>
	<path fill="#343434" d="M47.161,25.836V8.597h12.831v2.758H50.19v4.704h8.693v2.758H50.19v7.019H47.161z"/>
	<path fill="#343434" d="M63.488,25.836V8.597h3.029v17.239H63.488z"/>
	<path fill="#343434" d="M76.812,25.959L69.645,8.597h3.35l5.196,13.25l5.172-13.25h3.275l-7.167,17.362H76.812z"/>
	<path fill="#343434" d="M89.593,25.836V8.597h12.782v2.709h-9.752v4.482h8.645v2.709h-8.645v4.63h9.875v2.709H89.593z"/>
	<path fill="#343434" d="M112.127,26.083c-2.742,0-5.139-0.919-7.191-2.758l1.822-2.167c1.724,1.494,3.538,2.241,5.443,2.241   c0.936,0,1.678-0.201,2.229-0.604c0.55-0.402,0.825-0.939,0.825-1.613c0-0.64-0.263-1.153-0.788-1.539   c-0.526-0.386-1.56-0.759-3.103-1.121c-2.003-0.476-3.46-1.079-4.372-1.81c-0.911-0.73-1.367-1.851-1.367-3.362   c0-1.478,0.55-2.68,1.65-3.608c1.1-0.927,2.512-1.391,4.236-1.391c2.364,0,4.449,0.723,6.255,2.167l-1.625,2.291   c-1.593-1.182-3.152-1.773-4.679-1.773c-0.871,0-1.556,0.197-2.057,0.591c-0.501,0.394-0.751,0.895-0.751,1.502   c0,0.674,0.274,1.195,0.825,1.564c0.55,0.37,1.638,0.751,3.263,1.146c1.905,0.459,3.304,1.075,4.199,1.847   c0.895,0.772,1.342,1.855,1.342,3.251c0,1.593-0.566,2.849-1.699,3.768C115.452,25.623,113.966,26.083,112.127,26.083z"/>
	<path fill="#343434" d="M137.396,26.354l-2.069-1.847c-1.526,1.084-3.275,1.625-5.245,1.625c-2.611,0-4.762-0.862-6.453-2.586   c-1.691-1.724-2.537-3.833-2.537-6.329c0-2.463,0.854-4.564,2.561-6.305c1.708-1.74,3.867-2.61,6.477-2.61   c2.611,0,4.762,0.862,6.452,2.586c1.691,1.724,2.537,3.833,2.537,6.329c0,1.987-0.583,3.752-1.749,5.295l1.971,1.675   L137.396,26.354z M130.13,23.349c1.1,0,2.085-0.279,2.956-0.837L130.13,20l1.945-2.216l2.98,2.709   c0.591-0.903,0.887-1.995,0.887-3.275c0-1.708-0.555-3.156-1.663-4.347c-1.107-1.19-2.508-1.786-4.198-1.786   c-1.691,0-3.083,0.591-4.175,1.773s-1.638,2.635-1.638,4.359c0,1.708,0.554,3.157,1.663,4.347   C127.04,22.754,128.439,23.349,130.13,23.349z"/>
	<path fill="#343434" d="M149.857,26.107c-2.282,0-4.075-0.648-5.381-1.946c-1.305-1.297-1.958-3.177-1.958-5.64V8.597h3.029v9.802   c0,1.576,0.386,2.792,1.157,3.645s1.839,1.28,3.202,1.28c1.362,0,2.426-0.41,3.189-1.231c0.763-0.821,1.145-2.011,1.145-3.571   V8.597h3.029v9.777c0,2.512-0.656,4.429-1.97,5.75C153.986,25.447,152.172,26.107,149.857,26.107z"/>
	<path fill="#343434" d="M159.364,25.836l7.585-17.362h2.808l7.585,17.362h-3.201l-1.749-4.162h-8.151l-1.773,4.162H159.364z    M165.348,18.99h5.935l-2.979-6.896L165.348,18.99z"/>
	<path fill="#343434" d="M180.296,25.836V8.597h7.684c2.003,0,3.571,0.497,4.704,1.49c1.133,0.994,1.699,2.328,1.699,4.002   c0,1.363-0.37,2.484-1.108,3.362c-0.739,0.878-1.74,1.499-3.005,1.859l4.654,6.526h-3.57l-4.285-6.009h-3.743v6.009H180.296z    M183.326,17.143h4.433c1.084,0,1.945-0.263,2.586-0.788s0.96-1.24,0.96-2.143c0-0.919-0.312-1.625-0.936-2.118   s-1.502-0.739-2.635-0.739h-4.408V17.143z"/>
	<path fill="#343434" d="M198.102,25.836V8.597h12.781v2.709h-9.752v4.482h8.644v2.709h-8.644v4.63h9.875v2.709H198.102z"/>
</g>
<g>
</g>
<g>
</g>
<g>
</g>
<g>
</g>
<g>
</g>
<g>
</g>
<g>
</g>
<g>
</g>
<g>
</g>
<g>
</g>
<g>
</g>
<g>
</g>
<g>
</g>
<g>
</g>
<g>
</g>
</svg>