<?xml version="1.0" encoding="UTF-8"?>
<!-- Generator: Adobe Illustrator 16.0.0, SVG Export Plug-In . SVG Version: 6.00 Build 0)  -->
<!DOCTYPE svg PUBLIC "-//W3C//DTD SVG 1.1//EN" "http://www.w3.org/Graphics/SVG/1.1/DTD/svg11.dtd">
<svg version="1.1" id="Ebene_1" xmlns="http://www.w3.org/2000/svg" xmlns:xlink="http://www.w3.org/1999/xlink" x="0px" y="0px" width="477.943px" height="77.182px" viewBox="0 0 477.943 77.182" enable-background="new 0 0 477.943 77.182" xml:space="preserve">
<g>
	<path fill="#0094FF" d="M8.756,68.403l0.005-15.347h-8.77l-0.005,24.116l46.479,0.009v-8.77L8.756,68.403z"/>
</g>
<g>
	<polygon fill="#F9F9FA" points="77.173,0.017 77.16,77.19 55.235,77.187 55.235,68.416 68.391,68.416 68.403,8.782 8.77,8.77    8.761,44.286 -0.009,44.286 0,0  "/>
</g>
<g>
	<g>
		<path fill="#F9F9FA" d="M108.516,57.722l0.009-38.718l29.479,0.004v7.744l-20.964-0.005v8.243l18.474,0.005v7.743l-18.474-0.004    l-0.005,14.987H108.516z"/>
	</g>
	<g>
		<path fill="#F9F9FA" d="M145.187,57.73l0.009-38.719h8.52l-0.009,38.719H145.187z"/>
	</g>
	<g>
		<path fill="#F9F9FA" d="M175.718,58.016l-15.645-38.999h9.4l10.116,27.27l10.129-27.266h9.182l-15.662,38.99L175.718,58.016z"/>
	</g>
	<g>
		<path fill="#F9F9FA" d="M204.864,57.744l0.009-38.719l29.203,0.004v7.577l-20.74-0.004v7.854l18.254,0.004v7.577l-18.254-0.005    v8.13l21.017,0.005v7.577H204.864z"/>
	</g>
	<g>
		<path fill="#F9F9FA" d="M255.697,58.31c-6.34,0-11.816-2.065-16.425-6.2l5.033-6.029c3.798,3.135,7.651,4.705,11.559,4.705    c1.732,0,3.096-0.333,4.096-0.995c0.995-0.662,1.495-1.583,1.495-2.768c0-1.104-0.518-1.999-1.548-2.684    c-1.035-0.684-3.118-1.43-6.248-2.24c-2.215-0.553-4.004-1.097-5.363-1.632c-1.363-0.534-2.666-1.245-3.898-2.131    c-1.236-0.886-2.14-1.999-2.709-3.346c-0.57-1.346-0.855-2.959-0.855-4.841c0-3.503,1.263-6.322,3.793-8.463    c2.525-2.14,5.779-3.205,9.765-3.205c5.494,0,10.287,1.645,14.378,4.925l-4.424,6.415c-3.648-2.544-7.007-3.819-10.067-3.819    c-1.588,0-2.811,0.324-3.679,0.969c-0.869,0.645-1.299,1.486-1.303,2.517c0,1.254,0.535,2.192,1.604,2.819    c1.07,0.627,3.319,1.382,6.749,2.271c4.205,1.109,7.301,2.526,9.291,4.263c1.99,1.731,2.986,4.223,2.986,7.467    c0,3.763-1.303,6.7-3.902,8.822C263.415,57.248,259.973,58.31,255.697,58.31z"/>
	</g>
	<g>
		<path fill="#F9F9FA" d="M311.894,58.928l-4.258-3.819c-3.429,2.21-7.266,3.315-11.506,3.315c-5.901,0-10.795-1.938-14.685-5.811    s-5.832-8.612-5.832-14.216c0-5.568,1.965-10.296,5.894-14.185c3.929-3.89,8.84-5.832,14.742-5.832    c5.897,0,10.795,1.938,14.685,5.81c3.89,3.872,5.832,8.612,5.832,14.216c0,4.091-1.145,7.801-3.434,11.116l3.981,3.376    L311.894,58.928z M296.24,50.574c1.807,0,3.503-0.351,5.091-1.048l-6.306-5.367l5.424-6.082l6.358,5.753    c0.701-1.548,1.052-3.354,1.052-5.419c0-3.395-1.104-6.271-3.314-8.63s-5.017-3.543-8.406-3.543c-3.394,0-6.178,1.171-8.353,3.513    c-2.175,2.341-3.267,5.227-3.267,8.655c0,3.394,1.104,6.271,3.314,8.63C290.049,49.391,292.851,50.57,296.24,50.574z"/>
	</g>
	<g>
		<path fill="#F9F9FA" d="M340.487,58.38c-5.275,0-9.384-1.469-12.334-4.398c-2.951-2.934-4.425-7.2-4.425-12.804l0.005-22.126h8.52    l-0.005,21.902c0,3.096,0.729,5.468,2.184,7.107c1.456,1.641,3.513,2.465,6.165,2.465c2.657,0,4.71-0.789,6.17-2.377    c1.456-1.583,2.184-3.89,2.188-6.915l0.005-22.179h8.52l-0.004,21.85c0,5.753-1.504,10.104-4.513,13.055    C349.954,56.91,345.798,58.384,340.487,58.38z"/>
	</g>
	<g>
		<path fill="#F9F9FA" d="M361.451,57.778l16.601-38.99h7.854l16.584,39h-8.906l-3.538-8.687l-16.373-0.005l-3.543,8.682H361.451z     M376.72,41.572l10.286,0.004l-5.144-12.558L376.72,41.572z"/>
	</g>
	<g>
		<path fill="#F9F9FA" d="M408.466,57.788l0.009-38.719l17.701,0.004c4.902,0,8.665,1.312,11.282,3.929    c2.215,2.215,3.319,5.201,3.315,8.963c0,5.938-2.768,9.937-8.301,12.002l9.454,13.829h-9.958L423.567,45.4h-6.582l-0.005,12.392    L408.466,57.788z M416.989,37.876h8.63c2.065,0,3.67-0.505,4.811-1.521c1.144-1.013,1.714-2.368,1.714-4.065    c0-1.806-0.588-3.179-1.767-4.121c-1.18-0.938-2.819-1.412-4.925-1.412h-8.463V37.876z"/>
	</g>
	<g>
		<path fill="#F9F9FA" d="M448.455,57.796l0.009-38.718l29.203,0.004v7.577l-20.74-0.004v7.853l18.254,0.005v7.577l-18.254-0.005    v8.13l21.017,0.005v7.576H448.455z"/>
	</g>
</g>
</svg>